<?xml version="1.0" standalone="no"?>
<!DOCTYPE svg PUBLIC "-//W3C//DTD SVG 20010904//EN"
 "http://www.w3.org/TR/2001/REC-SVG-20010904/DTD/svg10.dtd">
<svg version="1.0" xmlns="http://www.w3.org/2000/svg"
 width="512.000000pt" height="512.000000pt" viewBox="0 0 512.000000 512.000000"
 preserveAspectRatio="xMidYMid meet">
<metadata>
Created by potrace 1.11, written by Peter Selinger 2001-2013
</metadata>
<g transform="translate(0.000000,512.000000) scale(0.100000,-0.100000)"
fill="#000000" stroke="none">
<path d="M1671 4743 c-31 -122 -47 -347 -30 -415 16 -64 100 -89 166 -48 53
32 61 64 40 155 -28 119 -131 345 -157 345 -5 0 -14 -17 -19 -37z"/>
<path d="M2530 4594 c-77 -43 -99 -59 -385 -273 -264 -198 -354 -261 -373
-261 -8 0 -98 37 -201 81 -102 45 -253 111 -336 146 -82 35 -163 70 -180 78
-53 23 -205 68 -212 61 -9 -8 -11 -86 -3 -86 3 0 12 -28 20 -62 7 -35 17 -70
21 -78 12 -24 227 -682 234 -716 5 -27 -1 -40 -45 -95 -28 -35 -84 -100 -123
-143 -40 -43 -80 -88 -90 -100 -24 -28 -149 -166 -163 -180 -37 -38 -173 -207
-193 -239 -12 -21 -21 -44 -18 -52 6 -14 49 -23 147 -30 30 -2 57 -4 60 -5 3
-1 12 -2 22 -1 75 8 378 4 378 -4 0 -7 3 -7 8 0 4 6 84 11 193 13 184 3 187 2
209 -21 12 -12 82 -126 155 -252 263 -455 358 -597 387 -579 17 11 63 120 106
254 53 163 115 361 118 380 2 8 9 32 16 53 l13 37 112 -117 c61 -65 154 -161
205 -214 248 -255 403 -422 400 -431 -1 -5 2 -7 6 -4 5 3 44 -32 87 -77 43
-45 171 -178 284 -296 113 -118 233 -242 266 -276 33 -35 148 -154 255 -265
107 -111 221 -230 254 -264 202 -211 228 -236 245 -226 21 11 211 207 276 284
28 32 55 64 62 70 9 8 -13 35 -92 111 -57 55 -202 194 -321 310 -120 116 -232
224 -249 240 -18 17 -141 136 -275 265 -134 129 -269 260 -300 290 -32 30
-161 155 -286 276 -126 122 -285 276 -354 342 -69 66 -158 152 -199 191 -41
39 -72 74 -69 77 3 3 17 7 32 9 45 8 68 13 166 35 52 12 106 23 120 25 52 7
357 84 393 99 20 9 37 22 37 28 0 15 -54 65 -149 136 -42 31 -80 60 -86 65 -5
4 -115 82 -244 173 -343 244 -322 222 -316 328 3 45 7 99 10 121 10 73 14 109
20 180 4 39 8 77 10 85 2 8 7 53 10 100 4 47 9 93 11 104 2 10 6 78 10 150 6
124 -2 186 -23 186 -5 0 -37 -16 -73 -36z m-263 -696 c-3 -62 -8 -122 -10
-133 -3 -11 -8 -54 -12 -95 -3 -41 -8 -92 -10 -113 -4 -37 -3 -39 78 -98 45
-33 99 -72 120 -87 148 -105 196 -146 184 -159 -6 -5 -216 -57 -277 -68 -63
-11 -165 -37 -182 -46 -11 -6 -30 -51 -53 -127 -63 -204 -95 -296 -111 -317
-15 -20 -16 -20 -40 10 -27 33 -144 227 -144 239 0 4 -5 12 -11 19 -5 7 -25
37 -43 67 l-32 55 -232 2 c-232 1 -262 4 -262 22 0 14 83 116 181 222 106 115
130 149 124 170 -3 10 -8 26 -10 36 -2 10 -10 37 -19 61 -8 23 -15 43 -15 45
0 1 -5 16 -11 32 -20 49 -80 247 -80 261 0 29 59 9 331 -109 59 -26 114 -47
124 -47 9 0 68 38 131 85 195 145 250 182 278 184 5 1 6 -49 3 -111z"/>
<path d="M3150 3920 c-25 -4 -63 -11 -85 -14 -77 -13 -199 -46 -228 -64 -35
-20 -52 -60 -43 -105 9 -44 34 -73 78 -91 35 -15 39 -14 90 12 113 57 318 222
318 257 0 17 -49 19 -130 5z"/>
<path d="M651 3609 c-25 -5 -61 -11 -81 -14 -20 -3 -51 -10 -68 -15 -18 -5
-32 -7 -32 -5 0 2 -21 -5 -47 -14 -28 -10 -48 -23 -48 -31 0 -17 122 -69 225
-96 36 -10 67 -20 70 -23 3 -3 14 -7 25 -7 11 -1 46 -5 77 -9 55 -7 57 -7 87
25 26 29 29 39 27 86 -1 44 -7 59 -28 81 -24 23 -36 27 -95 28 -37 1 -88 -2
-112 -6z"/>
<path d="M1267 2443 c-15 -7 -33 -34 -46 -65 -46 -116 -90 -408 -61 -408 29 0
180 181 255 305 28 46 35 67 30 89 -14 76 -107 117 -178 79z"/>
</g>
</svg>
